<svg width="24.000000" height="24.000000" viewBox="0 0 24 24" fill="none" xmlns="http://www.w3.org/2000/svg" xmlns:xlink="http://www.w3.org/1999/xlink">
	<desc>
			Created with Pixso.
	</desc>
	<defs>
		<clipPath id="clip5_6">
			<rect id="material-symbols:thumb-up" width="24.000000" height="24.000000" fill="white" fill-opacity="0"/>
		</clipPath>
	</defs>
	<rect id="material-symbols:thumb-up" width="24.000000" height="24.000000" fill="#FFFFFF" fill-opacity="0"/>
	<g clip-path="url(#clip5_6)">
		<path id="Vector" d="M18 21L8 21L8 8L15 1L16.25 2.25C16.3666 2.36667 16.4626 2.52499 16.538 2.72501C16.6133 2.92499 16.6507 3.11667 16.65 3.29999L16.65 3.64999L15.55 8L21 8C21.5333 8 22 8.2 22.4 8.60001C22.8 9 23 9.46666 23 10L23 12C23 12.1167 22.9877 12.2417 22.963 12.375C22.9384 12.5083 22.9007 12.6333 22.85 12.75L19.85 19.8C19.7 20.1333 19.45 20.4167 19.1 20.65C18.75 20.8833 18.3834 21 18 21ZM6 8L6 21L2 21L2 8L6 8Z" fill="#F8FCFF" fill-opacity="1.000000" fill-rule="nonzero"/>
	</g>
</svg>
